<?xml version="1.0" encoding="UTF-8"?>
<svg id="Layer_1" data-name="Layer 1" xmlns="http://www.w3.org/2000/svg" viewBox="0 0 22.28 21.94">
  <defs>
    <style>
      .cls-1 {
        fill: #1c4581;
      }
    </style>
  </defs>
  <g id="Group_695" data-name="Group 695">
    <path id="Path_733" data-name="Path 733" class="cls-1" d="M22.19,20.31c-.07,.42-.27,.81-.58,1.1-.72,.67-1.85,.63-2.52-.09-.01-.01-.02-.03-.03-.04-1.58-1.58-3.17-3.16-4.75-4.75-.05-.05-.09-.11-.13-.18-.59,.31-1.11,.63-1.66,.86-2.31,1.02-4.95,.98-7.24-.1-1.75-.79-3.19-2.13-4.1-3.81C.34,11.8-.04,10.07,.11,8.34,.25,6.22,1.16,4.23,2.67,2.74,4.07,1.28,5.95,.36,7.97,.14c1.81-.23,3.65,.12,5.26,.99,1.35,.72,2.5,1.78,3.32,3.07,.86,1.33,1.35,2.87,1.4,4.45,.08,1.71-.35,3.4-1.23,4.86-.1,.11-.09,.29,.02,.39,0,0,.02,.01,.03,.02,1.54,1.52,3.06,3.06,4.6,4.59,.41,.35,.7,.82,.83,1.35v.44Zm-7.13-11.3c0-3.33-2.71-6.03-6.04-6.04-3.32,0-6.02,2.7-6.04,6.02,0,3.33,2.7,6.04,6.03,6.05,3.33,0,6.04-2.7,6.05-6.03h0Z"/>
  </g>
</svg>