<?xml version="1.0" encoding="UTF-8"?>
<svg id="Layer_1" data-name="Layer 1" xmlns="http://www.w3.org/2000/svg" viewBox="0 0 13.58 13.58">
  <defs>
    <style>
      .cls-1 {
        fill: #1c4581;
      }
    </style>
  </defs>
  <path class="cls-1" d="M10.15,13.5c-.65-.06-1.22-.21-1.77-.42-1.42-.53-2.67-1.35-3.82-2.33-1.38-1.18-2.53-2.54-3.42-4.12-.47-.83-.83-1.7-1.01-2.64-.03-.15-.05-.3-.07-.44-.03-.18,.03-.33,.12-.48,.45-.79,1.02-1.5,1.65-2.16,.22-.23,.45-.44,.69-.63,.5-.39,.98-.31,1.34,.21,.39,.57,.76,1.14,1.12,1.73,.2,.33,.37,.68,.53,1.03,.26,.61,.2,.85-.28,1.3-.21,.2-.44,.38-.66,.57-.07,.05-.08,.1-.05,.18,.68,1.81,1.92,3.05,3.73,3.73,.09,.03,.14,.02,.2-.05,.15-.19,.3-.37,.47-.54,.12-.13,.25-.27,.39-.38,.19-.16,.42-.2,.66-.13,.5,.14,.95,.39,1.39,.66,.57,.35,1.13,.73,1.69,1.1,.09,.06,.18,.13,.25,.22,.31,.4,.33,.69,.06,1.02-.3,.37-.62,.72-.97,1.05-.58,.54-1.2,1.02-1.9,1.41-.12,.07-.26,.1-.33,.13ZM3.08,.95s-.06,.05-.09,.07c-.73,.67-1.36,1.41-1.91,2.23-.1,.15-.12,.29-.09,.46,.14,.74,.38,1.43,.73,2.09,1.32,2.5,3.22,4.43,5.66,5.83,.76,.44,1.58,.76,2.45,.92,.16,.03,.3,.02,.44-.08,.62-.42,1.21-.89,1.74-1.41,.19-.19,.38-.39,.57-.59-.06-.05-.1-.08-.14-.12-.8-.58-1.65-1.08-2.54-1.51-.11-.05-.16-.03-.23,.05-.26,.3-.52,.59-.78,.89-.19,.23-.41,.26-.69,.18-.99-.3-1.87-.81-2.63-1.5-.93-.84-1.61-1.85-1.98-3.06-.16-.52-.2-.42,.21-.84,.25-.25,.54-.48,.81-.71,.09-.07,.1-.13,.05-.24-.38-.78-.81-1.54-1.31-2.25-.1-.14-.2-.27-.3-.41Z"/>
</svg>