<?xml version="1.0" encoding="UTF-8"?>
<svg id="Layer_1" data-name="Layer 1" xmlns="http://www.w3.org/2000/svg" viewBox="0 0 28.84 19.84">
  <defs>
    <style>
      .cls-1 {
        fill: #1c4581;
      }
    </style>
  </defs>
  <g id="Group_694" data-name="Group 694">
    <path id="Path_729" data-name="Path 729" class="cls-1" d="M.1,3.72l9.64,6.34c-.08,.06-.15,.11-.21,.15-3.07,1.94-6.14,3.88-9.21,5.82-.07,.04-.15,.07-.22,.1V3.72Z"/>
    <path id="Path_730" data-name="Path 730" class="cls-1" d="M28.74,16.14c-.08-.03-.15-.06-.22-.1-3.07-1.94-6.14-3.88-9.21-5.82-.06-.04-.12-.08-.22-.15L28.74,3.72v12.42Z"/>
    <path id="Path_731" data-name="Path 731" class="cls-1" d="M14.42,.09h12.39c.8-.05,1.54,.44,1.8,1.2,.1,.17,.04,.38-.13,.48-.01,0-.02,.01-.03,.02-3.11,2.04-6.21,4.08-9.31,6.13-1.5,.99-3,1.97-4.5,2.97-.12,.1-.3,.1-.42,0C9.59,7.83,4.98,4.79,.35,1.75c-.14-.07-.21-.24-.14-.38,0,0,0,0,0,0C.42,.67,1.03,.16,1.76,.1c.13-.01,.26,0,.39,0H14.42Z"/>
    <path id="Path_732" data-name="Path 732" class="cls-1" d="M.15,18.27c.09-.06,.17-.12,.25-.17,3.58-2.27,7.16-4.53,10.74-6.8,.14-.12,.35-.12,.49,0,.71,.49,1.45,.95,2.17,1.44,.37,.28,.88,.28,1.24,0,.73-.49,1.48-.97,2.21-1.47,.1-.09,.26-.1,.37-.01,3.63,2.31,7.27,4.61,10.91,6.9,.05,.03,.09,.06,.13,.1-.11,.84-.81,1.48-1.66,1.51H2.06c-.78,.06-1.51-.4-1.79-1.13-.04-.11-.07-.23-.11-.37Z"/>
  </g>
</svg>