<?xml version="1.0" encoding="UTF-8"?>
<svg id="Layer_1" data-name="Layer 1" xmlns="http://www.w3.org/2000/svg" viewBox="0 0 22 22.03">
  <defs>
    <style>
      .cls-1 {
        fill: #1c4581;
      }
    </style>
  </defs>
  <g id="Group_693" data-name="Group 693">
    <path id="Path_725" data-name="Path 725" class="cls-1" d="M15.5,21.96c.73,.05,1.44-.19,1.99-.67,.67-.64,1.32-1.31,1.95-1.99,.32-.34,.44-.82,.33-1.27-.09-.36-.29-.68-.57-.93-.8-.8-1.61-1.6-2.41-2.41-.1-.1-.21-.19-.32-.28-.32-.27-.73-.39-1.15-.34-.4,.07-.77,.28-1.04,.58-.5,.5-1,1-1.5,1.51-.14,.14-.28,.22-.47,.11-.4-.22-.81-.41-1.19-.65-1.11-.71-2.12-1.56-3-2.54-.94-.94-1.71-2.03-2.29-3.23-.15-.34-.15-.4,.11-.65,.48-.48,.97-.96,1.45-1.44,.31-.27,.51-.63,.59-1.03,.06-.55-.16-1.09-.58-1.44-.82-.83-1.64-1.65-2.47-2.47-.2-.19-.43-.35-.68-.46-.6-.24-1.29-.07-1.7,.43-.57,.56-1.14,1.13-1.7,1.7-.29,.29-.5,.66-.61,1.06-.19,.78-.18,1.59,.03,2.36,.39,1.62,1.05,3.17,1.96,4.57,2.35,3.86,5.83,6.9,9.98,8.7,1.04,.47,2.16,.73,3.3,.78ZM10.9,6.17c2.5,.37,4.49,2.3,4.94,4.79l1.64-.28c-.54-3.22-3.12-5.7-6.35-6.13l-.23,1.63Z"/>
    <path id="Path_726" data-name="Path 726" class="cls-1" d="M11.47,.16c.49,.11,.98,.21,1.46,.34,2.2,.59,4.2,1.79,5.75,3.47,1.44,1.52,2.47,3.38,3,5.41,.08,.31,.15,.62,.22,.92v.08l-1.64,.29c-.84-4.61-4.51-8.18-9.15-8.87l.22-1.64h.13Z"/>
    <path id="Path_727" data-name="Path 727" class="cls-1" d="M15.5,21.96c-1.14-.04-2.27-.31-3.31-.78-4.14-1.8-7.63-4.84-9.98-8.7-.9-1.4-1.57-2.95-1.96-4.57-.2-.77-.21-1.58-.03-2.36,.11-.4,.32-.77,.61-1.06,.56-.57,1.13-1.14,1.7-1.7,.41-.5,1.1-.67,1.7-.43,.25,.11,.48,.27,.68,.46,.83,.81,1.65,1.64,2.47,2.47,.42,.35,.64,.89,.58,1.44-.08,.4-.28,.76-.59,1.03-.48,.48-.97,.96-1.45,1.44-.26,.26-.26,.32-.11,.65,.58,1.19,1.36,2.28,2.29,3.23,.88,.98,1.89,1.83,3,2.54,.38,.24,.8,.43,1.19,.65,.19,.11,.33,.02,.47-.11,.5-.5,1-1.01,1.5-1.51,.27-.3,.64-.51,1.04-.58,.41-.05,.83,.07,1.15,.34,.11,.09,.22,.18,.32,.28,.8,.8,1.61,1.6,2.41,2.41,.28,.25,.47,.57,.57,.93,.11,.45-.01,.93-.33,1.27-.63,.68-1.28,1.35-1.95,1.99-.55,.48-1.26,.72-1.98,.68Z"/>
    <path id="Path_728" data-name="Path 728" class="cls-1" d="M10.9,6.17l.23-1.63c3.23,.43,5.81,2.92,6.35,6.13l-1.64,.28c-.45-2.49-2.44-4.41-4.94-4.79Z"/>
  </g>
</svg>