<?xml version="1.0" encoding="UTF-8"?>
<svg id="Layer_1" data-name="Layer 1" xmlns="http://www.w3.org/2000/svg" viewBox="0 0 9.73 13.98">
  <defs>
    <style>
      .cls-1 {
        fill: #1c4581;
      }
    </style>
  </defs>
  <path class="cls-1" d="M5.29,.08c.25,.05,.5,.08,.75,.14,1.83,.43,3.29,1.99,3.62,3.84,.18,1.03,.01,2.02-.34,2.99-.39,1.07-.94,2.06-1.58,3-.72,1.06-1.46,2.11-2.19,3.16-.11,.16-.22,.33-.34,.49-.17,.23-.49,.23-.65,0-.98-1.44-2.06-2.83-2.96-4.33-.57-.94-1.07-1.92-1.36-2.98C-.12,5.01-.02,3.69,.72,2.46,1.51,1.15,2.68,.37,4.2,.13c.1-.02,.19-.03,.29-.05,.27,0,.54,0,.81,0Zm-.41,12.65s.04-.05,.06-.06c.68-.97,1.37-1.93,2.03-2.91,.64-.94,1.21-1.93,1.6-3,.3-.83,.45-1.68,.29-2.57-.4-2.2-2.61-3.68-4.8-3.2C1.85,1.46,.48,3.6,.94,5.8c.17,.82,.5,1.59,.89,2.32,.59,1.11,1.31,2.14,2.03,3.16,.34,.48,.67,.95,1.02,1.44Z"/>
  <path class="cls-1" d="M2.47,4.93c0-1.34,1.08-2.42,2.43-2.42,1.34,0,2.42,1.08,2.42,2.42,0,1.34-1.08,2.42-2.43,2.42-1.34,0-2.42-1.08-2.42-2.42Zm2.42,1.61c.88,0,1.61-.73,1.62-1.6,0-.88-.73-1.62-1.61-1.63-.88,0-1.61,.73-1.62,1.6,0,.88,.73,1.62,1.61,1.63Z"/>
</svg>