<?xml version="1.0" encoding="UTF-8"?>
<svg id="Layer_1" data-name="Layer 1" xmlns="http://www.w3.org/2000/svg" viewBox="0 0 12.55 9.43">
  <defs>
    <style>
      .cls-1 {
        fill: #1c4581;
      }
    </style>
  </defs>
  <path class="cls-1" d="M.02,8.41c0-2.46,0-4.92,0-7.37,0-.02,.02-.04,.02-.07C.18,.4,.63,.03,1.21,.03c3.38,0,6.75,0,10.13,0,.66,0,1.18,.51,1.18,1.17,0,2.34,0,4.69,0,7.03,0,.65-.52,1.17-1.17,1.17-3.39,0-6.78,0-10.17,0-.35,0-.64-.14-.87-.39-.16-.17-.24-.38-.29-.61ZM11.74,1.68s-.08,.06-.1,.08c-1.68,1.45-3.35,2.9-5.03,4.36-.26,.23-.42,.23-.67,0-1.49-1.29-2.99-2.59-4.48-3.88-.21-.18-.42-.36-.66-.57,0,.07,0,.11,0,.16,0,2.1,0,4.21,0,6.31,0,.34,.14,.49,.49,.49,3.32,0,6.64,0,9.96,0,.35,0,.49-.14,.49-.49,0-2.1,0-4.21,0-6.31,0-.04,0-.08,0-.15Zm-.26-.82s0-.03,0-.05c-3.47,0-6.93,0-10.4,0,0,.01,0,.03,0,.04,1.73,1.5,3.47,3.01,5.21,4.51,1.74-1.51,3.47-3.01,5.21-4.51Z"/>
</svg>